Input #0, rtsp, from 'rtsp://localhost:8554/kesanapalli-01':
  Metadata:
    title           : LIVE VIEW
  Duration: N/A, start: -1.564244, bitrate: N/A
  Stream #0:0: Video: hevc (Main), yuvj420p(pc, bt709/bt709/iec61966-2-1), 1280x720 [SAR 1:1 DAR 16:9], 25 fps, 25 tbr, 90k tbn, start -1.564244
Stream mapping:
  Stream #0:0 -> #0:0 (hevc (native) -> h264 (libx264))
[hevc @ 000002054e96f480] PPS changed between slices.
[hevc @ 000002054e96f480] Skipping invalid undecodable NALU: 19
[hevc @ 000002054e96f480] PPS changed between slices.
[hevc @ 000002054e96f480] Skipping invalid undecodable NALU: 19
[hevc @ 000002054e96f480] Could not find ref with POC 0
[hevc @ 000002054e96f480] Error constructing the frame RPS.
[hevc @ 000002054e96f480] Skipping invalid undecodable NALU: 1
[hevc @ 000002054e96f480] First slice in a frame missing.
[hevc @ 000002054e96f480] Skipping invalid undecodable NALU: 1
[hevc @ 000002054e96f480] First slice in a frame missing.
[hevc @ 000002054e96f480] Skipping invalid undecodable NALU: 1
[hevc @ 000002054e4e48c0] Could not find ref with POC 1
[hevc @ 000002054e4e48c0] Error constructing the frame RPS.
[hevc @ 000002054e4e48c0] Skipping invalid undecodable NALU: 1
[hevc @ 000002054e4e48c0] First slice in a frame missing.
[hevc @ 000002054e4e48c0] Skipping invalid undecodable NALU: 1
[hevc @ 000002054e4e48c0] First slice in a frame missing.
[hevc @ 000002054e4e48c0] Skipping invalid undecodable NALU: 1
[hevc @ 000002054e55e540] Could not find ref with POC 2
[hevc @ 000002054e55e540] Error constructing the frame RPS.
[hevc @ 000002054e55e540] Skipping invalid undecodable NALU: 1
[hevc @ 000002054e55e540] First slice in a frame missing.
[hevc @ 000002054e55e540] Skipping invalid undecodable NALU: 1
[hevc @ 000002054e55e540] First slice in a frame missing.
[hevc @ 000002054e55e540] Skipping invalid undecodable NALU: 1
[hevc @ 000002054e55e900] Could not find ref with POC 3
[hevc @ 000002054e55e900] Error constructing the frame RPS.
[hevc @ 000002054e55e900] Skipping invalid undecodable NALU: 1
[hevc @ 000002054e55e900] First slice in a frame missing.
[hevc @ 000002054e55e900] Skipping invalid undecodable NALU: 1
[hevc @ 000002054e55e900] First slice in a frame missing.
[hevc @ 000002054e55e900] Skipping invalid undecodable NALU: 1
[hevc @ 000002054eab7600] Could not find ref with POC 4
[hevc @ 000002054eab7600] Error constructing the frame RPS.
[hevc @ 000002054eab7600] Skipping invalid undecodable NALU: 1
[hevc @ 000002054eab7600] First slice in a frame missing.
[hevc @ 000002054eab7600] Skipping invalid undecodable NALU: 1
[hevc @ 000002054eab7600] First slice in a frame missing.
[hevc @ 000002054eab7600] Skipping invalid undecodable NALU: 1
[hevc @ 000002054ee3bac0] Could not find ref with POC 5
[hevc @ 000002054ee3bac0] Error constructing the frame RPS.
[hevc @ 000002054ee3bac0] Skipping invalid undecodable NALU: 1
[hevc @ 000002054ee3bac0] First slice in a frame missing.
[hevc @ 000002054ee3bac0] Skipping invalid undecodable NALU: 1
[hevc @ 000002054ee3bac0] First slice in a frame missing.
[hevc @ 000002054ee3bac0] Skipping invalid undecodable NALU: 1
[hevc @ 000002054ef6f200] Could not find ref with POC 6
[hevc @ 000002054ef6f200] Error constructing the frame RPS.
[hevc @ 000002054ef6f200] Skipping invalid undecodable NALU: 1
[hevc @ 000002054ef6f200] First slice in a frame missing.
[hevc @ 000002054ef6f200] Skipping invalid undecodable NALU: 1
[hevc @ 000002054ef6f200] First slice in a frame missing.
[hevc @ 000002054ef6f200] Skipping invalid undecodable NALU: 1
[hevc @ 000002054f01ea00] Could not find ref with POC 7
[hevc @ 000002054f01ea00] Error constructing the frame RPS.
[hevc @ 000002054f01ea00] Skipping invalid undecodable NALU: 1
[hevc @ 000002054f01ea00] First slice in a frame missing.
[hevc @ 000002054f01ea00] Skipping invalid undecodable NALU: 1
[hevc @ 000002054f01ea00] First slice in a frame missing.
[hevc @ 000002054f01ea00] Skipping invalid undecodable NALU: 1
[hevc @ 000002054ee74040] Could not find ref with POC 8
[hevc @ 000002054ee74040] Error constructing the frame RPS.
[hevc @ 000002054ee74040] Skipping invalid undecodable NALU: 1
[hevc @ 000002054ee74040] First slice in a frame missing.
[hevc @ 000002054ee74040] Skipping invalid undecodable NALU: 1
[hevc @ 000002054ee74040] First slice in a frame missing.
[hevc @ 000002054ee74040] Skipping invalid undecodable NALU: 1
[swscaler @ 0000020551648600] deprecated pixel format used, make sure you did set range correctly
[libx264 @ 000002054e4e6500] using SAR=1/1
[libx264 @ 000002054e4e6500] using cpu capabilities: MMX2 SSE2Fast SSSE3 SSE4.2 AVX FMA3 BMI2 AVX2 AVX512
[libx264 @ 000002054e4e6500] profile High, level 3.1, 4:2:0, 8-bit
[libx264 @ 000002054e4e6500] 264 - core 165 r3222 b35605a - H.264/MPEG-4 AVC codec - Copyleft 2003-2025 - http://www.videolan.org/x264.html - options: cabac=1 ref=1 deblock=1:0:0 analyse=0x3:0x113 me=hex subme=2 psy=1 psy_rd=1.00:0.00 mixed_ref=0 me_range=16 chroma_me=1 trellis=0 8x8dct=1 cqm=0 deadzone=21,11 fast_pskip=1 chroma_qp_offset=0 threads=8 lookahead_threads=8 sliced_threads=1 slices=8 nr=0 decimate=1 interlaced=0 bluray_compat=0 constrained_intra=0 bframes=0 weightp=1 keyint=50 keyint_min=26 scenecut=0 intra_refresh=0 rc=crf mbtree=0 crf=23.0 qcomp=0.60 qpmin=0 qpmax=69 qpstep=4 ip_ratio=1.40 aq=1:1.00
Output #0, rtsp, to 'rtsp://localhost:8554/kesanapalli-01-h264':
  Metadata:
    title           : LIVE VIEW
    encoder         : Lavf62.3.100
  Stream #0:0: Video: h264, yuv420p(pc, bt709/bt709/iec61966-2-1, progressive), 1280x720 [SAR 1:1 DAR 16:9], q=2-31, 25 fps, 90k tbn
    Metadata:
      encoder         : Lavc62.11.100 libx264
    Side data:
      cpb: bitrate max/min/avg: 0/0/0 buffer size: 0 vbv_delay: N/A
frame=   12 fps=0.0 q=21.0 size=N/A time=00:00:00.80 bitrate=N/A speed=1.56x elapsed=0:00:00.51    frame=   12 fps= 12 q=21.0 size=N/A time=00:00:00.80 bitrate=N/A speed=0.773x elapsed=0:00:01.03    frame=   12 fps=7.8 q=21.0 size=N/A time=00:00:00.80 bitrate=N/A speed=0.517x elapsed=0:00:01.54    frame=   23 fps= 11 q=12.0 size=N/A time=00:00:01.24 bitrate=N/A dup=100 drop=0 speed=0.602x elapsed=0:00:02.06    frame=   43 fps= 17 q=12.0 size=N/A time=00:00:02.04 bitrate=N/A dup=100 drop=0 speed=0.785x elapsed=0:00:02.59    frame=   93 fps= 30 q=12.0 size=N/A time=00:00:04.08 bitrate=N/A dup=100 drop=0 speed=1.31x elapsed=0:00:03.11    frame=  117 fps= 32 q=12.0 size=N/A time=00:00:05.00 bitrate=N/A dup=100 drop=0 speed=1.37x elapsed=0:00:03.64    frame=  132 fps= 32 q=21.0 size=N/A time=00:00:05.60 bitrate=N/A dup=100 drop=0 speed=1.34x elapsed=0:00:04.17    frame=  132 fps= 28 q=21.0 size=N/A time=00:00:05.60 bitrate=N/A dup=100 drop=0 speed= 1.2x elapsed=0:00:04.68    frame=  132 fps= 25 q=21.0 size=N/A time=00:00:05.60 bitrate=N/A dup=100 drop=0 speed=1.07x elapsed=0:00:05.21    frame=  142 fps= 25 q=21.0 size=N/A time=00:00:06.00 bitrate=N/A dup=100 drop=0 speed=1.05x elapsed=0:00:05.74    frame=  142 fps= 23 q=21.0 size=N/A time=00:00:06.00 bitrate=N/A dup=100 drop=0 speed=0.96x elapsed=0:00:06.24    frame=  142 fps= 21 q=21.0 size=N/A time=00:00:06.00 bitrate=N/A dup=100 drop=0 speed=0.888x elapsed=0:00:06.75    frame=  142 fps= 19 q=21.0 size=N/A time=00:00:06.00 bitrate=N/A dup=100 drop=0 speed=0.824x elapsed=0:00:07.28    frame=  142 fps= 18 q=21.0 size=N/A time=00:00:06.00 bitrate=N/A dup=100 drop=0 speed=0.769x elapsed=0:00:07.80    frame=  167 fps= 20 q=12.0 size=N/A time=00:00:07.32 bitrate=N/A dup=205 drop=0 speed=0.879x elapsed=0:00:08.32    frame=  251 fps= 28 q=21.0 size=N/A time=00:00:10.60 bitrate=N/A dup=205 drop=0 speed= 1.2x elapsed=0:00:08.85    frame=  257 fps= 27 q=21.0 size=N/A time=00:00:10.60 bitrate=N/A dup=205 drop=0 speed=1.13x elapsed=0:00:09.37    frame=  267 fps= 27 q=21.0 size=N/A time=00:00:11.00 bitrate=N/A dup=205 drop=0 speed=1.11x elapsed=0:00:09.89    frame=  267 fps= 26 q=21.0 size=N/A time=00:00:11.00 bitrate=N/A dup=205 drop=0 speed=1.06x elapsed=0:00:10.41    frame=  267 fps= 24 q=21.0 size=N/A time=00:00:11.00 bitrate=N/A dup=205 drop=0 speed=1.01x elapsed=0:00:10.91    frame=  267 fps= 23 q=21.0 size=N/A time=00:00:11.00 bitrate=N/A dup=205 drop=0 speed=0.961x elapsed=0:00:11.44    frame=  277 fps= 23 q=21.0 size=N/A time=00:00:11.40 bitrate=N/A dup=205 drop=0 speed=0.953x elapsed=0:00:11.95    frame=  277 fps= 22 q=21.0 size=N/A time=00:00:11.40 bitrate=N/A dup=205 drop=0 speed=0.914x elapsed=0:00:12.47    frame=  277 fps= 21 q=21.0 size=N/A time=00:00:11.40 bitrate=N/A dup=205 drop=0 speed=0.878x elapsed=0:00:12.98    frame=  277 fps= 21 q=21.0 size=N/A time=00:00:11.40 bitrate=N/A dup=205 drop=0 speed=0.844x elapsed=0:00:13.50    frame=  277 fps= 20 q=21.0 size=N/A time=00:00:11.40 bitrate=N/A dup=205 drop=0 speed=0.814x elapsed=0:00:14.01    frame=  277 fps= 19 q=21.0 size=N/A time=00:00:11.40 bitrate=N/A dup=205 drop=0 speed=0.784x elapsed=0:00:14.53    frame=  287 fps= 19 q=13.0 size=N/A time=00:00:11.80 bitrate=N/A dup=325 drop=0 speed=0.784x elapsed=0:00:15.04    frame=  351 fps= 23 q=13.0 size=N/A time=00:00:14.68 bitrate=N/A dup=325 drop=0 speed=0.943x elapsed=0:00:15.56    frame=  401 fps= 25 q=9.0 size=N/A time=00:00:16.36 bitrate=N/A dup=325 drop=0 speed=1.02x elapsed=0:00:16.07    frame=  407 fps= 25 q=20.0 size=N/A time=00:00:16.60 bitrate=N/A dup=325 drop=0 speed=   1x elapsed=0:00:16.59    frame=  407 fps= 24 q=20.0 size=N/A time=00:00:16.60 bitrate=N/A dup=325 drop=0 speed=0.97x elapsed=0:00:17.11    frame=  407 fps= 23 q=20.0 size=N/A time=00:00:16.60 bitrate=N/A dup=325 drop=0 speed=0.942x elapsed=0:00:17.62    frame=  407 fps= 22 q=20.0 size=N/A time=00:00:16.60 bitrate=N/A dup=325 drop=0 speed=0.915x elapsed=0:00:18.13    frame=  417 fps= 22 q=22.0 size=N/A time=00:00:17.00 bitrate=N/A dup=325 drop=0 speed=0.911x elapsed=0:00:18.66    frame=  417 fps= 22 q=22.0 size=N/A time=00:00:17.00 bitrate=N/A dup=325 drop=0 speed=0.887x elapsed=0:00:19.16    frame=  417 fps= 21 q=22.0 size=N/A time=00:00:17.00 bitrate=N/A dup=325 drop=0 speed=0.863x elapsed=0:00:19.69    frame=  427 fps= 21 q=21.0 size=N/A time=00:00:17.40 bitrate=N/A dup=325 drop=0 speed=0.861x elapsed=0:00:20.19    frame=  427 fps= 21 q=21.0 size=N/A time=00:00:17.40 bitrate=N/A dup=325 drop=0 speed=0.84x elapsed=0:00:20.71    frame=  427 fps= 20 q=21.0 size=N/A time=00:00:17.40 bitrate=N/A dup=325 drop=0 speed=0.819x elapsed=0:00:21.24    frame=  466 fps= 21 q=12.0 size=N/A time=00:00:18.96 bitrate=N/A dup=515 drop=0 speed=0.871x elapsed=0:00:21.76    frame=  524 fps= 24 q=12.0 size=N/A time=00:00:21.28 bitrate=N/A dup=515 drop=0 speed=0.955x elapsed=0:00:22.28    frame=  588 fps= 26 q=12.0 size=N/A time=00:00:23.84 bitrate=N/A dup=515 drop=0 speed=1.05x elapsed=0:00:22.81    frame=  624 fps= 27 q=12.0 size=N/A time=00:00:25.28 bitrate=N/A dup=515 drop=0 speed=1.08x elapsed=0:00:23.32    frame=  627 fps= 26 q=20.0 size=N/A time=00:00:25.40 bitrate=N/A dup=515 drop=0 speed=1.07x elapsed=0:00:23.84    frame=  627 fps= 26 q=20.0 size=N/A time=00:00:25.40 bitrate=N/A dup=515 drop=0 speed=1.04x elapsed=0:00:24.36    frame=  627 fps= 25 q=20.0 size=N/A time=00:00:25.40 bitrate=N/A dup=515 drop=0 speed=1.02x elapsed=0:00:24.89    frame=  637 fps= 25 q=21.0 size=N/A time=00:00:25.80 bitrate=N/A dup=515 drop=0 speed=1.01x elapsed=0:00:25.45    frame=  637 fps= 25 q=21.0 size=N/A time=00:00:25.80 bitrate=N/A dup=515 drop=0 speed=0.993x elapsed=0:00:25.97    frame=  637 fps= 24 q=21.0 size=N/A time=00:00:25.80 bitrate=N/A dup=515 drop=0 speed=0.973x elapsed=0:00:26.50    frame=  637 fps= 24 q=21.0 size=N/A time=00:00:25.80 bitrate=N/A dup=515 drop=0 speed=0.955x elapsed=0:00:27.01    frame=  637 fps= 23 q=21.0 size=N/A time=00:00:25.80 bitrate=N/A dup=515 drop=0 speed=0.937x elapsed=0:00:27.52    frame=  637 fps= 23 q=21.0 size=N/A time=00:00:25.80 bitrate=N/A dup=515 drop=0 speed=0.92x elapsed=0:00:28.04    frame=  637 fps= 22 q=21.0 size=N/A time=00:00:25.80 bitrate=N/A dup=515 drop=0 speed=0.903x elapsed=0:00:28.57    frame=  637 fps= 22 q=21.0 size=N/A time=00:00:25.80 bitrate=N/A dup=515 drop=0 speed=0.887x elapsed=0:00:29.09    frame=  637 fps= 22 q=21.0 size=N/A time=00:00:25.80 bitrate=N/A dup=515 drop=0 speed=0.871x elapsed=0:00:29.61    frame=  647 fps= 21 q=21.0 size=N/A time=00:00:26.20 bitrate=N/A dup=515 drop=0 speed=0.87x elapsed=0:00:30.12    frame=  647 fps= 21 q=21.0 size=N/A time=00:00:26.20 bitrate=N/A dup=515 drop=0 speed=0.855x elapsed=0:00:30.64    frame=  647 fps= 21 q=21.0 size=N/A time=00:00:26.20 bitrate=N/A dup=515 drop=0 speed=0.841x elapsed=0:00:31.15    frame=  647 fps= 20 q=21.0 size=N/A time=00:00:26.20 bitrate=N/A dup=515 drop=0 speed=0.827x elapsed=0:00:31.66    frame=  647 fps= 20 q=21.0 size=N/A time=00:00:26.20 bitrate=N/A dup=515 drop=0 speed=0.814x elapsed=0:00:32.19    frame=  647 fps= 20 q=21.0 size=N/A time=00:00:26.20 bitrate=N/A dup=515 drop=0 speed=0.801x elapsed=0:00:32.70    frame=  647 fps= 19 q=21.0 size=N/A time=00:00:26.20 bitrate=N/A dup=515 drop=0 speed=0.789x elapsed=0:00:33.21    frame=  647 fps= 19 q=21.0 size=N/A time=00:00:26.20 bitrate=N/A dup=515 drop=0 speed=0.777x elapsed=0:00:33.73    [rtsp @ 000002054e4c6c00] RTP: PT=66: bad cseq 8a9c expected=7c9c
frame=  657 fps= 19 q=22.0 size=N/A time=00:00:26.60 bitrate=N/A dup=515 drop=0 speed=0.777x elapsed=0:00:34.24    frame=  657 fps= 19 q=22.0 size=N/A time=00:00:26.60 bitrate=N/A dup=515 drop=0 speed=0.765x elapsed=0:00:34.75    frame=  657 fps= 19 q=22.0 size=N/A time=00:00:26.60 bitrate=N/A dup=515 drop=0 speed=0.754x elapsed=0:00:35.28    frame=  657 fps= 18 q=22.0 size=N/A time=00:00:26.60 bitrate=N/A dup=515 drop=0 speed=0.743x elapsed=0:00:35.79    frame=  657 fps= 18 q=22.0 size=N/A time=00:00:26.60 bitrate=N/A dup=515 drop=0 speed=0.732x elapsed=0:00:36.31    frame=  657 fps= 18 q=22.0 size=N/A time=00:00:26.60 bitrate=N/A dup=515 drop=0 speed=0.722x elapsed=0:00:36.83    frame=  690 fps= 18 q=12.0 size=N/A time=00:00:27.92 bitrate=N/A dup=775 drop=0 speed=0.747x elapsed=0:00:37.35    frame=  780 fps= 21 q=12.0 size=N/A time=00:00:31.52 bitrate=N/A dup=775 drop=0 speed=0.832x elapsed=0:00:37.88    frame=  851 fps= 22 q=13.0 size=N/A time=00:00:34.68 bitrate=N/A dup=775 drop=0 speed=0.903x elapsed=0:00:38.40    frame=  901 fps= 23 q=13.0 size=N/A time=00:00:36.68 bitrate=N/A dup=775 drop=0 speed=0.942x elapsed=0:00:38.91    frame=  927 fps= 24 q=20.0 size=N/A time=00:00:37.40 bitrate=N/A dup=775 drop=0 speed=0.948x elapsed=0:00:39.44    frame=  927 fps= 23 q=20.0 size=N/A time=00:00:37.40 bitrate=N/A dup=775 drop=0 speed=0.936x elapsed=0:00:39.95    frame=  927 fps= 23 q=20.0 size=N/A time=00:00:37.40 bitrate=N/A dup=775 drop=0 speed=0.924x elapsed=0:00:40.46    frame=  927 fps= 23 q=20.0 size=N/A time=00:00:37.40 bitrate=N/A dup=775 drop=0 speed=0.912x elapsed=0:00:40.99    frame=  927 fps= 22 q=20.0 size=N/A time=00:00:37.40 bitrate=N/A dup=775 drop=0 speed=0.901x elapsed=0:00:41.50    frame=  933 fps= 22 q=15.0 size=N/A time=00:00:37.64 bitrate=N/A dup=775 drop=0 speed=0.896x elapsed=0:00:42.01    frame=  937 fps= 22 q=21.0 size=N/A time=00:00:37.80 bitrate=N/A dup=775 drop=0 speed=0.889x elapsed=0:00:42.52    frame=  937 fps= 22 q=21.0 size=N/A time=00:00:37.80 bitrate=N/A dup=775 drop=0 speed=0.878x elapsed=0:00:43.05    frame=  937 fps= 22 q=21.0 size=N/A time=00:00:37.80 bitrate=N/A dup=775 drop=0 speed=0.868x elapsed=0:00:43.56    frame=  937 fps= 21 q=21.0 size=N/A time=00:00:37.80 bitrate=N/A dup=775 drop=0 speed=0.858x elapsed=0:00:44.07    frame=  937 fps= 21 q=21.0 size=N/A time=00:00:37.80 bitrate=N/A dup=775 drop=0 speed=0.847x elapsed=0:00:44.62    frame=  937 fps= 21 q=21.0 size=N/A time=00:00:37.80 bitrate=N/A dup=775 drop=0 speed=0.837x elapsed=0:00:45.14    frame=  937 fps= 21 q=21.0 size=N/A time=00:00:37.80 bitrate=N/A dup=775 drop=0 speed=0.828x elapsed=0:00:45.67    frame=  937 fps= 20 q=21.0 size=N/A time=00:00:37.80 bitrate=N/A dup=775 drop=0 speed=0.818x elapsed=0:00:46.18    [rtsp @ 000002054e4c6c00] RTP: PT=66: bad cseq 9b39 expected=8c2f
frame=  947 fps= 20 q=21.0 size=N/A time=00:00:38.20 bitrate=N/A dup=775 drop=0 speed=0.818x elapsed=0:00:46.70    frame=  947 fps= 20 q=21.0 size=N/A time=00:00:38.20 bitrate=N/A dup=775 drop=0 speed=0.809x elapsed=0:00:47.23    frame=  947 fps= 20 q=21.0 size=N/A time=00:00:38.20 bitrate=N/A dup=775 drop=0 speed= 0.8x elapsed=0:00:47.74    frame=  947 fps= 20 q=21.0 size=N/A time=00:00:38.20 bitrate=N/A dup=775 drop=0 speed=0.791x elapsed=0:00:48.26    frame=  947 fps= 19 q=21.0 size=N/A time=00:00:38.20 bitrate=N/A dup=775 drop=0 speed=0.783x elapsed=0:00:48.77    frame= 1025 fps= 21 q=12.0 size=N/A time=00:00:41.32 bitrate=N/A dup=1055 drop=0 speed=0.838x elapsed=0:00:49.29    frame= 1148 fps= 23 q=12.0 size=N/A time=00:00:46.24 bitrate=N/A dup=1055 drop=0 speed=0.928x elapsed=0:00:49.80    frame= 1237 fps= 25 q=19.0 size=N/A time=00:00:49.80 bitrate=N/A dup=1055 drop=0 speed=0.99x elapsed=0:00:50.32    frame= 1237 fps= 24 q=19.0 size=N/A time=00:00:49.80 bitrate=N/A dup=1055 drop=0 speed=0.979x elapsed=0:00:50.84    frame= 1237 fps= 24 q=19.0 size=N/A time=00:00:49.80 bitrate=N/A dup=1055 drop=0 speed=0.97x elapsed=0:00:51.36    frame= 1237 fps= 24 q=19.0 size=N/A time=00:00:49.80 bitrate=N/A dup=1055 drop=0 speed=0.96x elapsed=0:00:51.86    frame= 1237 fps= 24 q=19.0 size=N/A time=00:00:49.80 bitrate=N/A dup=1055 drop=0 speed=0.95x elapsed=0:00:52.39    frame= 1237 fps= 23 q=19.0 size=N/A time=00:00:49.80 bitrate=N/A dup=1055 drop=0 speed=0.941x elapsed=0:00:52.90    frame= 1246 fps= 23 q=23.0 size=N/A time=00:00:50.16 bitrate=N/A dup=1055 drop=0 speed=0.939x elapsed=0:00:53.42    frame= 1247 fps= 23 q=21.0 size=N/A time=00:00:50.20 bitrate=N/A dup=1055 drop=0 speed=0.93x elapsed=0:00:53.95    frame= 1247 fps= 23 q=21.0 size=N/A time=00:00:50.20 bitrate=N/A dup=1055 drop=0 speed=0.922x elapsed=0:00:54.46    frame= 1247 fps= 23 q=21.0 size=N/A time=00:00:50.20 bitrate=N/A dup=1055 drop=0 speed=0.913x elapsed=0:00:54.97    frame= 1247 fps= 22 q=21.0 size=N/A time=00:00:50.20 bitrate=N/A dup=1055 drop=0 speed=0.904x elapsed=0:00:55.50    frame= 1247 fps= 22 q=21.0 size=N/A time=00:00:50.20 bitrate=N/A dup=1055 drop=0 speed=0.896x elapsed=0:00:56.01    frame= 1247 fps= 22 q=21.0 size=N/A time=00:00:50.20 bitrate=N/A dup=1055 drop=0 speed=0.888x elapsed=0:00:56.53    frame= 1247 fps= 22 q=21.0 size=N/A time=00:00:50.20 bitrate=N/A dup=1055 drop=0 speed=0.88x elapsed=0:00:57.04    frame= 1247 fps= 22 q=21.0 size=N/A time=00:00:50.20 bitrate=N/A dup=1055 drop=0 speed=0.872x elapsed=0:00:57.55    frame= 1249 fps= 22 q=18.0 size=N/A time=00:00:50.28 bitrate=N/A dup=1055 drop=0 speed=0.866x elapsed=0:00:58.08    [rtsp @ 000002054e4c6c00] RTP: PT=66: bad cseq a9d4 expected=9ccc
frame= 1257 fps= 21 q=22.0 size=N/A time=00:00:50.60 bitrate=N/A dup=1055 drop=0 speed=0.864x elapsed=0:00:58.58    frame= 1257 fps= 21 q=22.0 size=N/A time=00:00:50.60 bitrate=N/A dup=1055 drop=0 speed=0.856x elapsed=0:00:59.11    frame= 1257 fps= 21 q=22.0 size=N/A time=00:00:50.60 bitrate=N/A dup=1055 drop=0 speed=0.849x elapsed=0:00:59.61    frame= 1257 fps= 21 q=22.0 size=N/A time=00:00:50.60 bitrate=N/A dup=1055 drop=0 speed=0.841x elapsed=0:01:00.13    frame= 1257 fps= 21 q=22.0 size=N/A time=00:00:50.60 bitrate=N/A dup=1055 drop=0 speed=0.834x elapsed=0:01:00.65    frame= 1257 fps= 21 q=22.0 size=N/A time=00:00:50.60 bitrate=N/A dup=1055 drop=0 speed=0.827x elapsed=0:01:01.17    frame= 1260 fps= 20 q=17.0 size=N/A time=00:00:50.72 bitrate=N/A dup=1055 drop=0 speed=0.822x elapsed=0:01:01.68    frame= 1265 fps= 20 q=15.0 size=N/A time=00:00:50.92 bitrate=N/A dup=1055 drop=0 speed=0.819x elapsed=0:01:02.20    [vf#0:0 @ 000002054e4df740] More than 1000 frames duplicated
frame= 1330 fps= 21 q=12.0 size=N/A time=00:00:53.52 bitrate=N/A dup=1300 drop=0 speed=0.853x elapsed=0:01:02.71    frame= 1450 fps= 23 q=12.0 size=N/A time=00:00:58.32 bitrate=N/A dup=1300 drop=0 speed=0.922x elapsed=0:01:03.23    frame= 1512 fps= 24 q=19.0 size=N/A time=00:01:00.80 bitrate=N/A dup=1300 drop=0 speed=0.954x elapsed=0:01:03.74    frame= 1522 fps= 24 q=21.0 size=N/A time=00:01:01.20 bitrate=N/A dup=1300 drop=0 speed=0.952x elapsed=0:01:04.25    frame= 1522 fps= 23 q=21.0 size=N/A time=00:01:01.20 bitrate=N/A dup=1300 drop=0 speed=0.945x elapsed=0:01:04.78    frame= 1522 fps= 23 q=21.0 size=N/A time=00:01:01.20 bitrate=N/A dup=1300 drop=0 speed=0.937x elapsed=0:01:05.29    frame= 1524 fps= 23 q=17.0 size=N/A time=00:01:01.28 bitrate=N/A dup=1300 drop=0 speed=0.931x elapsed=0:01:05.81    [rtsp @ 000002054e4c6c00] RTP: PT=66: bad cseq b740 expected=ab65
frame= 1532 fps= 23 q=21.0 size=N/A time=00:01:01.60 bitrate=N/A dup=1300 drop=0 speed=0.929x elapsed=0:01:06.32    frame= 1532 fps= 23 q=21.0 size=N/A time=00:01:01.60 bitrate=N/A dup=1300 drop=0 speed=0.921x elapsed=0:01:06.84    frame= 1559 fps= 23 q=13.0 size=N/A time=00:01:02.68 bitrate=N/A dup=1520 drop=0 speed=0.931x elapsed=0:01:07.35    frame= 1671 fps= 25 q=12.0 size=N/A time=00:01:07.16 bitrate=N/A dup=1520 drop=0 speed=0.989x elapsed=0:01:07.88    frame= 1762 fps= 26 q=20.0 size=N/A time=00:01:10.80 bitrate=N/A dup=1520 drop=0 speed=1.04x elapsed=0:01:08.40    frame= 1772 fps= 26 q=21.0 size=N/A time=00:01:11.20 bitrate=N/A dup=1520 drop=0 speed=1.03x elapsed=0:01:08.92    frame= 1772 fps= 26 q=21.0 size=N/A time=00:01:11.20 bitrate=N/A dup=1520 drop=0 speed=1.03x elapsed=0:01:09.43    frame= 1772 fps= 25 q=21.0 size=N/A time=00:01:11.20 bitrate=N/A dup=1520 drop=0 speed=1.02x elapsed=0:01:09.95    frame= 1782 fps= 25 q=21.0 size=N/A time=00:01:11.60 bitrate=N/A dup=1520 drop=0 speed=1.02x elapsed=0:01:10.48    frame= 1782 fps= 25 q=21.0 size=N/A time=00:01:11.60 bitrate=N/A dup=1520 drop=0 speed=1.01x elapsed=0:01:10.99    frame= 1782 fps= 25 q=21.0 size=N/A time=00:01:11.60 bitrate=N/A dup=1520 drop=0 speed=   1x elapsed=0:01:11.52    frame= 1782 fps= 25 q=21.0 size=N/A time=00:01:11.60 bitrate=N/A dup=1520 drop=0 speed=0.994x elapsed=0:01:12.04    frame= 1782 fps= 25 q=21.0 size=N/A time=00:01:11.60 bitrate=N/A dup=1520 drop=0 speed=0.987x elapsed=0:01:12.56    frame= 1782 fps= 24 q=21.0 size=N/A time=00:01:11.60 bitrate=N/A dup=1520 drop=0 speed=0.98x elapsed=0:01:13.07    frame= 1790 fps= 24 q=14.0 size=N/A time=00:01:11.92 bitrate=N/A dup=1610 drop=0 speed=0.977x elapsed=0:01:13.59    frame= 1873 fps= 25 q=12.0 size=N/A time=00:01:15.24 bitrate=N/A dup=1610 drop=0 speed=1.02x elapsed=0:01:14.10    frame= 1882 fps= 25 q=19.0 size=N/A time=00:01:15.60 bitrate=N/A dup=1610 drop=0 speed=1.01x elapsed=0:01:14.62    frame= 1882 fps= 25 q=19.0 size=N/A time=00:01:15.60 bitrate=N/A dup=1610 drop=0 speed=1.01x elapsed=0:01:15.13    frame= 1882 fps= 25 q=19.0 size=N/A time=00:01:15.60 bitrate=N/A dup=1610 drop=0 speed=0.999x elapsed=0:01:15.65    frame= 1882 fps= 25 q=19.0 size=N/A time=00:01:15.60 bitrate=N/A dup=1610 drop=0 speed=0.992x elapsed=0:01:16.17    frame= 1882 fps= 25 q=19.0 size=N/A time=00:01:15.60 bitrate=N/A dup=1610 drop=0 speed=0.986x elapsed=0:01:16.68    frame= 1882 fps= 24 q=19.0 size=N/A time=00:01:15.60 bitrate=N/A dup=1610 drop=0 speed=0.979x elapsed=0:01:17.20    frame= 1882 fps= 24 q=19.0 size=N/A time=00:01:15.60 bitrate=N/A dup=1610 drop=0 speed=0.973x elapsed=0:01:17.71    frame= 1882 fps= 24 q=19.0 size=N/A time=00:01:15.60 bitrate=N/A dup=1610 drop=0 speed=0.966x elapsed=0:01:18.23    frame= 1882 fps= 24 q=19.0 size=N/A time=00:01:15.60 bitrate=N/A dup=1610 drop=0 speed=0.96x elapsed=0:01:18.74    frame= 1892 fps= 24 q=21.0 size=N/A time=00:01:16.00 bitrate=N/A dup=1610 drop=0 speed=0.959x elapsed=0:01:19.26    frame= 1892 fps= 24 q=21.0 size=N/A time=00:01:16.00 bitrate=N/A dup=1610 drop=0 speed=0.953x elapsed=0:01:19.77    frame= 1892 fps= 24 q=21.0 size=N/A time=00:01:16.00 bitrate=N/A dup=1610 drop=0 speed=0.946x elapsed=0:01:20.29    frame= 1896 fps= 23 q=15.0 size=N/A time=00:01:16.16 bitrate=N/A dup=1610 drop=0 speed=0.942x elapsed=0:01:20.80    frame= 1902 fps= 23 q=27.0 size=N/A time=00:01:16.40 bitrate=N/A dup=1610 drop=0 speed=0.939x elapsed=0:01:21.32    frame= 1902 fps= 23 q=27.0 size=N/A time=00:01:16.40 bitrate=N/A dup=1610 drop=0 speed=0.933x elapsed=0:01:21.84    frame= 1902 fps= 23 q=27.0 size=N/A time=00:01:16.40 bitrate=N/A dup=1610 drop=0 speed=0.928x elapsed=0:01:22.37    [rtsp @ 000002054e4c6c00] RTP: PT=66: bad cseq ce6f expected=bff6
frame= 1912 fps= 23 q=21.0 size=N/A time=00:01:16.80 bitrate=N/A dup=1610 drop=0 speed=0.926x elapsed=0:01:22.89    frame= 1912 fps= 23 q=21.0 size=N/A time=00:01:16.80 bitrate=N/A dup=1610 drop=0 speed=0.921x elapsed=0:01:23.40    frame= 1932 fps= 23 q=12.0 size=N/A time=00:01:17.60 bitrate=N/A dup=1880 drop=0 speed=0.925x elapsed=0:01:23.91    frame= 2001 fps= 24 q=13.0 size=N/A time=00:01:20.68 bitrate=N/A dup=1880 drop=0 speed=0.956x elapsed=0:01:24.43    frame= 2101 fps= 25 q=16.0 size=N/A time=00:01:24.60 bitrate=N/A dup=1880 drop=0 speed=0.996x elapsed=0:01:24.95    frame= 2164 fps= 25 q=12.0 size=N/A time=00:01:26.88 bitrate=N/A dup=1880 drop=0 speed=1.02x elapsed=0:01:25.47    frame= 2202 fps= 26 q=27.0 size=N/A time=00:01:28.40 bitrate=N/A dup=1880 drop=0 speed=1.03x elapsed=0:01:25.97    frame= 2212 fps= 26 q=21.0 size=N/A time=00:01:28.80 bitrate=N/A dup=1880 drop=0 speed=1.03x elapsed=0:01:26.49    frame= 2212 fps= 25 q=21.0 size=N/A time=00:01:28.80 bitrate=N/A dup=1880 drop=0 speed=1.02x elapsed=0:01:27.00    frame= 2212 fps= 25 q=21.0 size=N/A time=00:01:28.80 bitrate=N/A dup=1880 drop=0 speed=1.01x elapsed=0:01:27.53    frame= 2263 fps= 26 q=12.0 size=N/A time=00:01:30.84 bitrate=N/A dup=1945 drop=0 speed=1.03x elapsed=0:01:28.08    frame= 2287 fps= 26 q=19.0 size=N/A time=00:01:31.80 bitrate=N/A dup=1945 drop=0 speed=1.04x elapsed=0:01:28.59    frame= 2287 fps= 26 q=19.0 size=N/A time=00:01:31.80 bitrate=N/A dup=1945 drop=0 speed=1.03x elapsed=0:01:29.10    frame= 2297 fps= 26 q=21.0 size=N/A time=00:01:32.20 bitrate=N/A dup=1945 drop=0 speed=1.03x elapsed=0:01:29.62    frame= 2297 fps= 25 q=21.0 size=N/A time=00:01:32.20 bitrate=N/A dup=1945 drop=0 speed=1.02x elapsed=0:01:30.14    frame= 2297 fps= 25 q=21.0 size=N/A time=00:01:32.20 bitrate=N/A dup=1945 drop=0 speed=1.02x elapsed=0:01:30.65    frame= 2307 fps= 25 q=22.0 size=N/A time=00:01:32.60 bitrate=N/A dup=1945 drop=0 speed=1.02x elapsed=0:01:31.16    frame= 2307 fps= 25 q=22.0 size=N/A time=00:01:32.60 bitrate=N/A dup=1945 drop=0 speed=1.01x elapsed=0:01:31.68    frame= 2317 fps= 25 q=21.0 size=N/A time=00:01:33.00 bitrate=N/A dup=1945 drop=0 speed=1.01x elapsed=0:01:32.19    frame= 2317 fps= 25 q=21.0 size=N/A time=00:01:33.00 bitrate=N/A dup=1945 drop=0 speed=   1x elapsed=0:01:32.72    frame= 2317 fps= 25 q=21.0 size=N/A time=00:01:33.00 bitrate=N/A dup=1945 drop=0 speed=0.997x elapsed=0:01:33.23    frame= 2351 fps= 25 q=16.0 size=N/A time=00:01:34.60 bitrate=N/A dup=2055 drop=0 speed=1.01x elapsed=0:01:33.74    frame= 2351 fps= 25 q=13.0 size=N/A time=00:01:34.68 bitrate=N/A dup=2055 drop=0 speed=   1x elapsed=0:01:34.26    frame= 2401 fps= 25 q=13.0 size=N/A time=00:01:36.68 bitrate=N/A dup=2055 drop=0 speed=1.02x elapsed=0:01:34.78    frame= 2447 fps= 26 q=21.0 size=N/A time=00:01:38.20 bitrate=N/A dup=2055 drop=0 speed=1.03x elapsed=0:01:35.28    frame= 2447 fps= 26 q=21.0 size=N/A time=00:01:38.20 bitrate=N/A dup=2055 drop=0 speed=1.02x elapsed=0:01:35.82    frame= 2447 fps= 25 q=21.0 size=N/A time=00:01:38.20 bitrate=N/A dup=2055 drop=0 speed=1.02x elapsed=0:01:36.34    frame= 2457 fps= 25 q=22.0 size=N/A time=00:01:38.60 bitrate=N/A dup=2055 drop=0 speed=1.02x elapsed=0:01:36.85    frame= 2465 fps= 25 q=15.0 size=N/A time=00:01:38.92 bitrate=N/A dup=2055 drop=0 speed=1.02x elapsed=0:01:37.37    frame= 2467 fps= 25 q=21.0 size=N/A time=00:01:39.00 bitrate=N/A dup=2055 drop=0 speed=1.01x elapsed=0:01:37.89    frame= 2467 fps= 25 q=21.0 size=N/A time=00:01:39.00 bitrate=N/A dup=2055 drop=0 speed=1.01x elapsed=0:01:38.40    frame= 2467 fps= 25 q=21.0 size=N/A time=00:01:39.00 bitrate=N/A dup=2055 drop=0 speed=   1x elapsed=0:01:38.92    frame= 2535 fps= 25 q=12.0 size=N/A time=00:01:41.72 bitrate=N/A dup=2145 drop=0 speed=1.02x elapsed=0:01:39.43    frame= 2567 fps= 26 q=19.0 size=N/A time=00:01:43.00 bitrate=N/A dup=2145 drop=0 speed=1.03x elapsed=0:01:39.94    frame= 2567 fps= 26 q=19.0 size=N/A time=00:01:43.00 bitrate=N/A dup=2145 drop=0 speed=1.03x elapsed=0:01:40.47    frame= 2571 fps= 25 q=15.0 size=N/A time=00:01:43.16 bitrate=N/A dup=2145 drop=0 speed=1.02x elapsed=0:01:40.98    frame= 2577 fps= 25 q=21.0 size=N/A time=00:01:43.40 bitrate=N/A dup=2145 drop=0 speed=1.02x elapsed=0:01:41.49    frame= 2577 fps= 25 q=21.0 size=N/A time=00:01:43.40 bitrate=N/A dup=2145 drop=0 speed=1.01x elapsed=0:01:42.00    frame= 2577 fps= 25 q=21.0 size=N/A time=00:01:43.40 bitrate=N/A dup=2145 drop=0 speed=1.01x elapsed=0:01:42.53    frame= 2587 fps= 25 q=21.0 size=N/A time=00:01:43.80 bitrate=N/A dup=2145 drop=0 speed=1.01x elapsed=0:01:43.04    frame= 2587 fps= 25 q=21.0 size=N/A time=00:01:43.80 bitrate=N/A dup=2145 drop=0 speed=   1x elapsed=0:01:43.55    frame= 2597 fps= 25 q=21.0 size=N/A time=00:01:44.20 bitrate=N/A dup=2145 drop=0 speed=   1x elapsed=0:01:44.08    frame= 2597 fps= 25 q=21.0 size=N/A time=00:01:44.20 bitrate=N/A dup=2145 drop=0 speed=0.996x elapsed=0:01:44.59    frame= 2597 fps= 25 q=21.0 size=N/A time=00:01:44.20 bitrate=N/A dup=2145 drop=0 speed=0.991x elapsed=0:01:45.10    frame= 2617 fps= 25 q=12.0 size=N/A time=00:01:45.00 bitrate=N/A dup=2265 drop=0 speed=0.994x elapsed=0:01:45.62    frame= 2698 fps= 25 q=12.0 size=N/A time=00:01:48.24 bitrate=N/A dup=2265 drop=0 speed=1.02x elapsed=0:01:46.13    frame= 2727 fps= 26 q=19.0 size=N/A time=00:01:49.40 bitrate=N/A dup=2265 drop=0 speed=1.03x elapsed=0:01:46.65    frame= 2727 fps= 25 q=19.0 size=N/A time=00:01:49.40 bitrate=N/A dup=2265 drop=0 speed=1.02x elapsed=0:01:47.17    frame= 2737 fps= 25 q=21.0 size=N/A time=00:01:49.80 bitrate=N/A dup=2265 drop=0 speed=1.02x elapsed=0:01:47.69    frame= 2737 fps= 25 q=21.0 size=N/A time=00:01:49.80 bitrate=N/A dup=2265 drop=0 speed=1.01x elapsed=0:01:48.20    frame= 2737 fps= 25 q=21.0 size=N/A time=00:01:49.80 bitrate=N/A dup=2265 drop=0 speed=1.01x elapsed=0:01:48.71    frame= 2747 fps= 25 q=21.0 size=N/A time=00:01:50.20 bitrate=N/A dup=2265 drop=0 speed=1.01x elapsed=0:01:49.23    frame= 2747 fps= 25 q=21.0 size=N/A time=00:01:50.20 bitrate=N/A dup=2265 drop=0 speed=   1x elapsed=0:01:49.74    frame= 2748 fps= 25 q=19.0 size=N/A time=00:01:50.24 bitrate=N/A dup=2265 drop=0 speed=   1x elapsed=0:01:50.26    frame= 2757 fps= 25 q=22.0 size=N/A time=00:01:50.60 bitrate=N/A dup=2265 drop=0 speed=0.998x elapsed=0:01:50.77    frame= 2757 fps= 25 q=22.0 size=N/A time=00:01:50.60 bitrate=N/A dup=2265 drop=0 speed=0.994x elapsed=0:01:51.28    frame= 2757 fps= 25 q=22.0 size=N/A time=00:01:50.60 bitrate=N/A dup=2265 drop=0 speed=0.989x elapsed=0:01:51.81    frame= 2846 fps= 25 q=12.0 size=N/A time=00:01:54.16 bitrate=N/A dup=2385 drop=0 speed=1.02x elapsed=0:01:52.32    frame= 2887 fps= 26 q=19.0 size=N/A time=00:01:55.80 bitrate=N/A dup=2385 drop=0 speed=1.03x elapsed=0:01:52.84    frame= 2897 fps= 26 q=21.0 size=N/A time=00:01:56.20 bitrate=N/A dup=2385 drop=0 speed=1.03x elapsed=0:01:53.35    frame= 2897 fps= 25 q=21.0 size=N/A time=00:01:56.20 bitrate=N/A dup=2385 drop=0 speed=1.02x elapsed=0:01:53.86    frame= 2907 fps= 25 q=22.0 size=N/A time=00:01:56.60 bitrate=N/A dup=2385 drop=0 speed=1.02x elapsed=0:01:54.39    frame= 2907 fps= 25 q=22.0 size=N/A time=00:01:56.60 bitrate=N/A dup=2385 drop=0 speed=1.01x elapsed=0:01:54.90    frame= 2911 fps= 25 q=16.0 size=N/A time=00:01:56.76 bitrate=N/A dup=2385 drop=0 speed=1.01x elapsed=0:01:55.42    frame= 2917 fps= 25 q=21.0 size=N/A time=00:01:57.00 bitrate=N/A dup=2385 drop=0 speed=1.01x elapsed=0:01:55.93    frame= 2917 fps= 25 q=21.0 size=N/A time=00:01:57.00 bitrate=N/A dup=2385 drop=0 speed=   1x elapsed=0:01:56.44    frame= 2949 fps= 25 q=12.0 size=N/A time=00:01:58.28 bitrate=N/A dup=2475 drop=0 speed=1.01x elapsed=0:01:56.97    frame= 3017 fps= 26 q=19.0 size=N/A time=00:02:01.00 bitrate=N/A dup=2475 drop=0 speed=1.03x elapsed=0:01:57.49    frame= 3017 fps= 26 q=19.0 size=N/A time=00:02:01.00 bitrate=N/A dup=2475 drop=0 speed=1.03x elapsed=0:01:58.00    frame= 3017 fps= 25 q=19.0 size=N/A time=00:02:01.00 bitrate=N/A dup=2475 drop=0 speed=1.02x elapsed=0:01:58.53    frame= 3017 fps= 25 q=19.0 size=N/A time=00:02:01.00 bitrate=N/A dup=2475 drop=0 speed=1.02x elapsed=0:01:59.05    frame= 3027 fps= 25 q=21.0 size=N/A time=00:02:01.40 bitrate=N/A dup=2475 drop=0 speed=1.02x elapsed=0:01:59.56    frame= 3027 fps= 25 q=21.0 size=N/A time=00:02:01.40 bitrate=N/A dup=2475 drop=0 speed=1.01x elapsed=0:02:00.07    frame= 3027 fps= 25 q=21.0 size=N/A time=00:02:01.40 bitrate=N/A dup=2475 drop=0 speed=1.01x elapsed=0:02:00.59    frame= 3037 fps= 25 q=21.0 size=N/A time=00:02:01.80 bitrate=N/A dup=2475 drop=0 speed=1.01x elapsed=0:02:01.10    frame= 3037 fps= 25 q=21.0 size=N/A time=00:02:01.80 bitrate=N/A dup=2475 drop=0 speed=   1x elapsed=0:02:01.62    frame= 3037 fps= 25 q=21.0 size=N/A time=00:02:01.80 bitrate=N/A dup=2475 drop=0 speed=0.997x elapsed=0:02:02.13    frame= 3037 fps= 25 q=21.0 size=N/A time=00:02:01.80 bitrate=N/A dup=2475 drop=0 speed=0.993x elapsed=0:02:02.66    frame= 3047 fps= 25 q=21.0 size=N/A time=00:02:02.20 bitrate=N/A dup=2475 drop=0 speed=0.992x elapsed=0:02:03.17    frame= 3047 fps= 25 q=21.0 size=N/A time=00:02:02.20 bitrate=N/A dup=2475 drop=0 speed=0.988x elapsed=0:02:03.68    frame= 3047 fps= 25 q=21.0 size=N/A time=00:02:02.20 bitrate=N/A dup=2475 drop=0 speed=0.984x elapsed=0:02:04.21    frame= 3122 fps= 25 q=12.0 size=N/A time=00:02:05.20 bitrate=N/A dup=2610 drop=0 speed=   1x elapsed=0:02:04.71    frame= 3192 fps= 25 q=19.0 size=N/A time=00:02:08.00 bitrate=N/A dup=2610 drop=0 speed=1.02x elapsed=0:02:05.24    frame= 3200 fps= 25 q=14.0 size=N/A time=00:02:08.32 bitrate=N/A dup=2610 drop=0 speed=1.02x elapsed=0:02:05.74    frame= 3202 fps= 25 q=27.0 size=N/A time=00:02:08.40 bitrate=N/A dup=2610 drop=0 speed=1.02x elapsed=0:02:06.27    frame= 3202 fps= 25 q=27.0 size=N/A time=00:02:08.40 bitrate=N/A dup=2610 drop=0 speed=1.01x elapsed=0:02:06.80    frame= 3202 fps= 25 q=27.0 size=N/A time=00:02:08.40 bitrate=N/A dup=2610 drop=0 speed=1.01x elapsed=0:02:07.31    frame= 3212 fps= 25 q=21.0 size=N/A time=00:02:08.80 bitrate=N/A dup=2610 drop=0 speed=1.01x elapsed=0:02:07.82    frame= 3212 fps= 25 q=21.0 size=N/A time=00:02:08.80 bitrate=N/A dup=2610 drop=0 speed=   1x elapsed=0:02:08.34    frame= 3212 fps= 25 q=21.0 size=N/A time=00:02:08.80 bitrate=N/A dup=2610 drop=0 speed=   1x elapsed=0:02:08.86    frame= 3219 fps= 25 q=14.0 size=N/A time=00:02:09.08 bitrate=N/A dup=2700 drop=0 speed=0.998x elapsed=0:02:09.37    frame= 3312 fps= 25 q=19.0 size=N/A time=00:02:12.80 bitrate=N/A dup=2700 drop=0 speed=1.02x elapsed=0:02:09.89    frame= 3312 fps= 25 q=19.0 size=N/A time=00:02:12.80 bitrate=N/A dup=2700 drop=0 speed=1.02x elapsed=0:02:10.42    frame= 3312 fps= 25 q=19.0 size=N/A time=00:02:12.80 bitrate=N/A dup=2700 drop=0 speed=1.01x elapsed=0:02:10.93    frame= 3322 fps= 25 q=21.0 size=N/A time=00:02:13.20 bitrate=N/A dup=2700 drop=0 speed=1.01x elapsed=0:02:11.45    frame= 3322 fps= 25 q=21.0 size=N/A time=00:02:13.20 bitrate=N/A dup=2700 drop=0 speed=1.01x elapsed=0:02:11.96    frame= 3322 fps= 25 q=21.0 size=N/A time=00:02:13.20 bitrate=N/A dup=2700 drop=0 speed=1.01x elapsed=0:02:12.48    frame= 3322 fps= 25 q=21.0 size=N/A time=00:02:13.20 bitrate=N/A dup=2700 drop=0 speed=   1x elapsed=0:02:13.00    frame= 3332 fps= 25 q=21.0 size=N/A time=00:02:13.60 bitrate=N/A dup=2700 drop=0 speed=   1x elapsed=0:02:13.51    frame= 3332 fps= 25 q=21.0 size=N/A time=00:02:13.60 bitrate=N/A dup=2700 drop=0 speed=0.997x elapsed=0:02:14.03    frame= 3369 fps= 25 q=12.0 size=N/A time=00:02:15.08 bitrate=N/A dup=2810 drop=0 speed=   1x elapsed=0:02:14.54    frame= 3452 fps= 26 q=27.0 size=N/A time=00:02:18.40 bitrate=N/A dup=2810 drop=0 speed=1.02x elapsed=0:02:15.06    frame= 3462 fps= 26 q=21.0 size=N/A time=00:02:18.80 bitrate=N/A dup=2810 drop=0 speed=1.02x elapsed=0:02:15.57    frame= 3462 fps= 25 q=21.0 size=N/A time=00:02:18.80 bitrate=N/A dup=2810 drop=0 speed=1.02x elapsed=0:02:16.08    frame= 3472 fps= 25 q=21.0 size=N/A time=00:02:19.20 bitrate=N/A dup=2810 drop=0 speed=1.02x elapsed=0:02:16.61    frame= 3472 fps= 25 q=21.0 size=N/A time=00:02:19.20 bitrate=N/A dup=2810 drop=0 speed=1.02x elapsed=0:02:17.12    frame= 3494 fps= 25 q=12.0 size=N/A time=00:02:20.08 bitrate=N/A dup=2870 drop=0 speed=1.02x elapsed=0:02:17.64    frame= 3542 fps= 26 q=19.0 size=N/A time=00:02:22.00 bitrate=N/A dup=2870 drop=0 speed=1.03x elapsed=0:02:18.17    frame= 3542 fps= 26 q=19.0 size=N/A time=00:02:22.00 bitrate=N/A dup=2870 drop=0 speed=1.02x elapsed=0:02:18.68    frame= 3552 fps= 26 q=27.0 size=N/A time=00:02:22.40 bitrate=N/A dup=2870 drop=0 speed=1.02x elapsed=0:02:19.19    frame= 3552 fps= 25 q=27.0 size=N/A time=00:02:22.40 bitrate=N/A dup=2870 drop=0 speed=1.02x elapsed=0:02:19.72    frame= 3562 fps= 25 q=21.0 size=N/A time=00:02:22.80 bitrate=N/A dup=2870 drop=0 speed=1.02x elapsed=0:02:20.23    frame= 3564 fps= 25 q=18.0 size=N/A time=00:02:22.88 bitrate=N/A dup=2870 drop=0 speed=1.02x elapsed=0:02:20.74    frame= 3572 fps= 25 q=21.0 size=N/A time=00:02:23.20 bitrate=N/A dup=2870 drop=0 speed=1.01x elapsed=0:02:21.26    frame= 3572 fps= 25 q=21.0 size=N/A time=00:02:23.20 bitrate=N/A dup=2870 drop=0 speed=1.01x elapsed=0:02:21.77    frame= 3581 fps= 25 q=13.0 size=N/A time=00:02:23.56 bitrate=N/A dup=2950 drop=0 speed=1.01x elapsed=0:02:22.29    frame= 3601 fps= 25 q=13.0 size=N/A time=00:02:24.68 bitrate=N/A dup=2950 drop=0 speed=1.01x elapsed=0:02:22.81    frame= 3657 fps= 26 q=16.0 size=N/A time=00:02:26.60 bitrate=N/A dup=2950 drop=0 speed=1.02x elapsed=0:02:23.32    frame= 3670 fps= 26 q=14.0 size=N/A time=00:02:27.12 bitrate=N/A dup=2950 drop=0 speed=1.02x elapsed=0:02:23.84    frame= 3672 fps= 25 q=21.0 size=N/A time=00:02:27.20 bitrate=N/A dup=2950 drop=0 speed=1.02x elapsed=0:02:24.36    frame= 3672 fps= 25 q=21.0 size=N/A time=00:02:27.20 bitrate=N/A dup=2950 drop=0 speed=1.02x elapsed=0:02:24.88    frame= 3672 fps= 25 q=21.0 size=N/A time=00:02:27.20 bitrate=N/A dup=2950 drop=0 speed=1.01x elapsed=0:02:25.41    frame= 3682 fps= 25 q=21.0 size=N/A time=00:02:27.60 bitrate=N/A dup=2950 drop=0 speed=1.01x elapsed=0:02:25.94    frame= 3682 fps= 25 q=21.0 size=N/A time=00:02:27.60 bitrate=N/A dup=2950 drop=0 speed=1.01x elapsed=0:02:26.45    frame= 3682 fps= 25 q=21.0 size=N/A time=00:02:27.60 bitrate=N/A dup=2950 drop=0 speed=   1x elapsed=0:02:26.96    frame= 3692 fps= 25 q=21.0 size=N/A time=00:02:28.00 bitrate=N/A dup=2950 drop=0 speed=   1x elapsed=0:02:27.47    frame= 3692 fps= 25 q=21.0 size=N/A time=00:02:28.00 bitrate=N/A dup=2950 drop=0 speed=   1x elapsed=0:02:28.00    frame= 3692 fps= 25 q=21.0 size=N/A time=00:02:28.00 bitrate=N/A dup=2950 drop=0 speed=0.997x elapsed=0:02:28.51    frame= 3747 fps= 25 q=12.0 size=N/A time=00:02:30.20 bitrate=N/A dup=3055 drop=0 speed=1.01x elapsed=0:02:29.03    frame= 3807 fps= 25 q=20.0 size=N/A time=00:02:32.60 bitrate=N/A dup=3055 drop=0 speed=1.02x elapsed=0:02:29.56    frame= 3807 fps= 25 q=20.0 size=N/A time=00:02:32.60 bitrate=N/A dup=3055 drop=0 speed=1.02x elapsed=0:02:30.08    frame= 3807 fps= 25 q=20.0 size=N/A time=00:02:32.60 bitrate=N/A dup=3055 drop=0 speed=1.01x elapsed=0:02:30.59    frame= 3817 fps= 25 q=21.0 size=N/A time=00:02:33.00 bitrate=N/A dup=3055 drop=0 speed=1.01x elapsed=0:02:31.11    frame= 3817 fps= 25 q=21.0 size=N/A time=00:02:33.00 bitrate=N/A dup=3055 drop=0 speed=1.01x elapsed=0:02:31.63    frame= 3817 fps= 25 q=21.0 size=N/A time=00:02:33.00 bitrate=N/A dup=3055 drop=0 speed=1.01x elapsed=0:02:32.15    frame= 3819 fps= 25 q=17.0 size=N/A time=00:02:33.08 bitrate=N/A dup=3055 drop=0 speed=   1x elapsed=0:02:32.67    frame= 3827 fps= 25 q=21.0 size=N/A time=00:02:33.40 bitrate=N/A dup=3055 drop=0 speed=   1x elapsed=0:02:33.21    frame= 3827 fps= 25 q=21.0 size=N/A time=00:02:33.40 bitrate=N/A dup=3055 drop=0 speed=0.998x elapsed=0:02:33.74    frame= 3827 fps= 25 q=21.0 size=N/A time=00:02:33.40 bitrate=N/A dup=3055 drop=0 speed=0.994x elapsed=0:02:34.25    frame= 3837 fps= 25 q=21.0 size=N/A time=00:02:33.80 bitrate=N/A dup=3055 drop=0 speed=0.994x elapsed=0:02:34.76    frame= 3837 fps= 25 q=21.0 size=N/A time=00:02:33.80 bitrate=N/A dup=3055 drop=0 speed=0.99x elapsed=0:02:35.27    frame= 3838 fps= 25 q=19.0 size=N/A time=00:02:33.84 bitrate=N/A dup=3055 drop=0 speed=0.987x elapsed=0:02:35.79    frame= 3940 fps= 25 q=12.0 size=N/A time=00:02:37.92 bitrate=N/A dup=3195 drop=0 speed=1.01x elapsed=0:02:36.31    frame= 3967 fps= 25 q=12.0 size=N/A time=00:02:39.00 bitrate=N/A dup=3195 drop=0 speed=1.01x elapsed=0:02:36.82    frame= 3997 fps= 25 q=21.0 size=N/A time=00:02:40.20 bitrate=N/A dup=3195 drop=0 speed=1.02x elapsed=0:02:37.33    frame= 3997 fps= 25 q=21.0 size=N/A time=00:02:40.20 bitrate=N/A dup=3195 drop=0 speed=1.01x elapsed=0:02:37.86    frame= 4007 fps= 25 q=22.0 size=N/A time=00:02:40.60 bitrate=N/A dup=3195 drop=0 speed=1.01x elapsed=0:02:38.37    frame= 4007 fps= 25 q=22.0 size=N/A time=00:02:40.60 bitrate=N/A dup=3195 drop=0 speed=1.01x elapsed=0:02:38.89    frame= 4007 fps= 25 q=22.0 size=N/A time=00:02:40.60 bitrate=N/A dup=3195 drop=0 speed=1.01x elapsed=0:02:39.40    frame= 4050 fps= 25 q=12.0 size=N/A time=00:02:42.32 bitrate=N/A dup=3265 drop=0 speed=1.02x elapsed=0:02:39.91    frame= 4087 fps= 25 q=19.0 size=N/A time=00:02:43.80 bitrate=N/A dup=3265 drop=0 speed=1.02x elapsed=0:02:40.43    frame= 4087 fps= 25 q=19.0 size=N/A time=00:02:43.80 bitrate=N/A dup=3265 drop=0 speed=1.02x elapsed=0:02:40.95    frame= 4093 fps= 25 q=14.0 size=N/A time=00:02:44.04 bitrate=N/A dup=3265 drop=0 speed=1.02x elapsed=0:02:41.47    frame= 4097 fps= 25 q=21.0 size=N/A time=00:02:44.20 bitrate=N/A dup=3265 drop=0 speed=1.01x elapsed=0:02:41.98    frame= 4097 fps= 25 q=21.0 size=N/A time=00:02:44.20 bitrate=N/A dup=3265 drop=0 speed=1.01x elapsed=0:02:42.49    frame= 4097 fps= 25 q=21.0 size=N/A time=00:02:44.20 bitrate=N/A dup=3265 drop=0 speed=1.01x elapsed=0:02:43.01    frame= 4107 fps= 25 q=21.0 size=N/A time=00:02:44.60 bitrate=N/A dup=3265 drop=0 speed=1.01x elapsed=0:02:43.52    frame= 4107 fps= 25 q=21.0 size=N/A time=00:02:44.60 bitrate=N/A dup=3265 drop=0 speed=   1x elapsed=0:02:44.03    frame= 4107 fps= 25 q=21.0 size=N/A time=00:02:44.60 bitrate=N/A dup=3265 drop=0 speed=   1x elapsed=0:02:44.56    frame= 4107 fps= 25 q=21.0 size=N/A time=00:02:44.60 bitrate=N/A dup=3265 drop=0 speed=0.997x elapsed=0:02:45.07    frame= 4117 fps= 25 q=21.0 size=N/A time=00:02:45.00 bitrate=N/A dup=3265 drop=0 speed=0.996x elapsed=0:02:45.58    frame= 4117 fps= 25 q=21.0 size=N/A time=00:02:45.00 bitrate=N/A dup=3265 drop=0 speed=0.993x elapsed=0:02:46.11    frame= 4136 fps= 25 q=12.0 size=N/A time=00:02:45.76 bitrate=N/A dup=3395 drop=0 speed=0.995x elapsed=0:02:46.62    frame= 4246 fps= 25 q=12.0 size=N/A time=00:02:50.16 bitrate=N/A dup=3395 drop=0 speed=1.02x elapsed=0:02:47.13    frame= 4257 fps= 25 q=20.0 size=N/A time=00:02:50.60 bitrate=N/A dup=3395 drop=0 speed=1.02x elapsed=0:02:47.66    frame= 4257 fps= 25 q=20.0 size=N/A time=00:02:50.60 bitrate=N/A dup=3395 drop=0 speed=1.01x elapsed=0:02:48.17    frame= 4267 fps= 25 q=21.0 size=N/A time=00:02:51.00 bitrate=N/A dup=3395 drop=0 speed=1.01x elapsed=0:02:48.68    frame= 4267 fps= 25 q=21.0 size=N/A time=00:02:51.00 bitrate=N/A dup=3395 drop=0 speed=1.01x elapsed=0:02:49.20    frame= 4267 fps= 25 q=21.0 size=N/A time=00:02:51.00 bitrate=N/A dup=3395 drop=0 speed=1.01x elapsed=0:02:49.71    frame= 4267 fps= 25 q=21.0 size=N/A time=00:02:51.00 bitrate=N/A dup=3395 drop=0 speed=   1x elapsed=0:02:50.23    frame= 4275 fps= 25 q=14.0 size=N/A time=00:02:51.32 bitrate=N/A dup=3395 drop=0 speed=   1x elapsed=0:02:50.74    frame= 4277 fps= 25 q=21.0 size=N/A time=00:02:51.40 bitrate=N/A dup=3395 drop=0 speed=   1x elapsed=0:02:51.26    frame= 4277 fps= 25 q=21.0 size=N/A time=00:02:51.40 bitrate=N/A dup=3395 drop=0 speed=0.998x elapsed=0:02:51.78    frame= 4287 fps= 25 q=21.0 size=N/A time=00:02:51.80 bitrate=N/A dup=3395 drop=0 speed=0.997x elapsed=0:02:52.29    frame= 4287 fps= 25 q=21.0 size=N/A time=00:02:51.80 bitrate=N/A dup=3395 drop=0 speed=0.994x elapsed=0:02:52.81    frame= 4290 fps= 25 q=16.0 size=N/A time=00:02:51.92 bitrate=N/A dup=3395 drop=0 speed=0.992x elapsed=0:02:53.32    frame= 4324 fps= 25 q=12.0 size=N/A time=00:02:53.28 bitrate=N/A dup=3535 drop=0 speed=0.997x elapsed=0:02:53.83    frame= 4401 fps= 25 q=13.0 size=N/A time=00:02:56.68 bitrate=N/A dup=3535 drop=0 speed=1.01x elapsed=0:02:54.35    frame= 4429 fps= 25 q=12.0 size=N/A time=00:02:57.48 bitrate=N/A dup=3535 drop=0 speed=1.01x elapsed=0:02:54.87    frame= 4437 fps= 25 q=19.0 size=N/A time=00:02:57.80 bitrate=N/A dup=3535 drop=0 speed=1.01x elapsed=0:02:55.39    frame= 4447 fps= 25 q=21.0 size=N/A time=00:02:58.20 bitrate=N/A dup=3535 drop=0 speed=1.01x elapsed=0:02:55.90    frame= 4448 fps= 25 q=19.0 size=N/A time=00:02:58.24 bitrate=N/A dup=3535 drop=0 speed=1.01x elapsed=0:02:56.42    frame= 4457 fps= 25 q=22.0 size=N/A time=00:02:58.60 bitrate=N/A dup=3535 drop=0 speed=1.01x elapsed=0:02:56.93    frame= 4457 fps= 25 q=22.0 size=N/A time=00:02:58.60 bitrate=N/A dup=3535 drop=0 speed=1.01x elapsed=0:02:57.46    frame= 4457 fps= 25 q=22.0 size=N/A time=00:02:58.60 bitrate=N/A dup=3535 drop=0 speed=   1x elapsed=0:02:57.98    frame= 4467 fps= 25 q=21.0 size=N/A time=00:02:59.00 bitrate=N/A dup=3535 drop=0 speed=   1x elapsed=0:02:58.50    frame= 4467 fps= 25 q=21.0 size=N/A time=00:02:59.00 bitrate=N/A dup=3535 drop=0 speed=   1x elapsed=0:02:59.01    frame= 4467 fps= 25 q=21.0 size=N/A time=00:02:59.00 bitrate=N/A dup=3535 drop=0 speed=0.997x elapsed=0:02:59.54    frame= 4471 fps= 25 q=15.0 size=N/A time=00:02:59.16 bitrate=N/A dup=3535 drop=0 speed=0.995x elapsed=0:03:00.06    frame= 4503 fps= 25 q=25.0 size=N/A time=00:03:00.44 bitrate=N/A dup=3630 drop=0 speed=0.999x elapsed=0:03:00.58    frame= 4550 fps= 25 q=12.0 size=N/A time=00:03:02.32 bitrate=N/A dup=3630 drop=0 speed=1.01x elapsed=0:03:01.09    frame= 4572 fps= 25 q=19.0 size=N/A time=00:03:03.20 bitrate=N/A dup=3630 drop=0 speed=1.01x elapsed=0:03:01.60    frame= 4582 fps= 25 q=21.0 size=N/A time=00:03:03.60 bitrate=N/A dup=3630 drop=0 speed=1.01x elapsed=0:03:02.13    frame= 4582 fps= 25 q=21.0 size=N/A time=00:03:03.60 bitrate=N/A dup=3630 drop=0 speed=1.01x elapsed=0:03:02.64    frame= 4582 fps= 25 q=21.0 size=N/A time=00:03:03.60 bitrate=N/A dup=3630 drop=0 speed=   1x elapsed=0:03:03.16    frame= 4582 fps= 25 q=21.0 size=N/A time=00:03:03.60 bitrate=N/A dup=3630 drop=0 speed=   1x elapsed=0:03:03.68    frame= 4592 fps= 25 q=21.0 size=N/A time=00:03:04.00 bitrate=N/A dup=3630 drop=0 speed=0.999x elapsed=0:03:04.20    frame= 4592 fps= 25 q=21.0 size=N/A time=00:03:04.00 bitrate=N/A dup=3630 drop=0 speed=0.996x elapsed=0:03:04.71    frame= 4592 fps= 25 q=21.0 size=N/A time=00:03:04.00 bitrate=N/A dup=3630 drop=0 speed=0.993x elapsed=0:03:05.23    frame= 4592 fps= 25 q=21.0 size=N/A time=00:03:04.00 bitrate=N/A dup=3630 drop=0 speed=0.991x elapsed=0:03:05.74    frame= 4594 fps= 25 q=18.0 size=N/A time=00:03:04.08 bitrate=N/A dup=3630 drop=0 speed=0.988x elapsed=0:03:06.26    frame= 4613 fps= 25 q=12.0 size=N/A time=00:03:04.84 bitrate=N/A dup=3750 drop=0 speed=0.99x elapsed=0:03:06.78    frame= 4654 fps= 25 q=22.0 size=N/A time=00:03:06.48 bitrate=N/A dup=3750 drop=0 speed=0.996x elapsed=0:03:07.31    frame= 4699 fps= 25 q=12.0 size=N/A time=00:03:08.28 bitrate=N/A dup=3750 drop=0 speed=   1x elapsed=0:03:07.85    frame= 4720 fps= 25 q=21.0 size=N/A time=00:03:09.16 bitrate=N/A dup=3750 drop=0 speed=   1x elapsed=0:03:08.38    frame= 4732 fps= 25 q=21.0 size=N/A time=00:03:09.60 bitrate=N/A dup=3750 drop=0 speed=   1x elapsed=0:03:08.91    frame= 4732 fps= 25 q=21.0 size=N/A time=00:03:09.60 bitrate=N/A dup=3750 drop=0 speed=   1x elapsed=0:03:09.44    frame= 4732 fps= 25 q=21.0 size=N/A time=00:03:09.60 bitrate=N/A dup=3750 drop=0 speed=0.998x elapsed=0:03:09.96    frame= 4735 fps= 25 q=16.0 size=N/A time=00:03:09.72 bitrate=N/A dup=3750 drop=0 speed=0.996x elapsed=0:03:10.50    frame= 4742 fps= 25 q=21.0 size=N/A time=00:03:10.00 bitrate=N/A dup=3750 drop=0 speed=0.995x elapsed=0:03:11.03    frame= 4742 fps= 25 q=21.0 size=N/A time=00:03:10.00 bitrate=N/A dup=3750 drop=0 speed=0.992x elapsed=0:03:11.54    frame= 4742 fps= 25 q=21.0 size=N/A time=00:03:10.00 bitrate=N/A dup=3750 drop=0 speed=0.989x elapsed=0:03:12.08    frame= 4746 fps= 25 q=16.0 size=N/A time=00:03:10.16 bitrate=N/A dup=3880 drop=0 speed=0.987x elapsed=0:03:12.61    frame= 4765 fps= 25 q=12.0 size=N/A time=00:03:10.92 bitrate=N/A dup=3880 drop=0 speed=0.989x elapsed=0:03:13.12    frame= 4786 fps= 25 q=12.0 size=N/A time=00:03:11.76 bitrate=N/A dup=3880 drop=0 speed=0.99x elapsed=0:03:13.64    frame= 4805 fps= 25 q=20.0 size=N/A time=00:03:12.52 bitrate=N/A dup=3880 drop=0 speed=0.992x elapsed=0:03:14.16    frame= 4850 fps= 25 q=12.0 size=N/A time=00:03:14.32 bitrate=N/A dup=3880 drop=0 speed=0.998x elapsed=0:03:14.70    frame= 4892 fps= 25 q=21.0 size=N/A time=00:03:16.00 bitrate=N/A dup=3880 drop=0 speed=   1x elapsed=0:03:15.21    frame= 4892 fps= 25 q=21.0 size=N/A time=00:03:16.00 bitrate=N/A dup=3880 drop=0 speed=   1x elapsed=0:03:15.74    frame= 4901 fps= 25 q=27.0 size=N/A time=00:03:16.40 bitrate=N/A dup=3880 drop=0 speed=   1x elapsed=0:03:16.26    frame= 4902 fps= 25 q=27.0 size=N/A time=00:03:16.40 bitrate=N/A dup=3880 drop=0 speed=0.998x elapsed=0:03:16.78    frame= 4902 fps= 25 q=27.0 size=N/A time=00:03:16.40 bitrate=N/A dup=3880 drop=0 speed=0.995x elapsed=0:03:17.29    frame= 4902 fps= 25 q=27.0 size=N/A time=00:03:16.40 bitrate=N/A dup=3880 drop=0 speed=0.993x elapsed=0:03:17.81    frame= 4938 fps= 25 q=12.0 size=N/A time=00:03:17.84 bitrate=N/A dup=3980 drop=0 speed=0.998x elapsed=0:03:18.32    frame= 4975 fps= 25 q=12.0 size=N/A time=00:03:19.32 bitrate=N/A dup=3980 drop=0 speed=   1x elapsed=0:03:18.84    frame= 5010 fps= 25 q=24.0 size=N/A time=00:03:20.72 bitrate=N/A dup=3980 drop=0 speed=1.01x elapsed=0:03:19.37    frame= 5013 fps= 25 q=18.0 size=N/A time=00:03:20.84 bitrate=N/A dup=3980 drop=0 speed=   1x elapsed=0:03:19.89    frame= 5022 fps= 25 q=21.0 size=N/A time=00:03:21.20 bitrate=N/A dup=3980 drop=0 speed=   1x elapsed=0:03:20.41    frame= 5022 fps= 25 q=21.0 size=N/A time=00:03:21.20 bitrate=N/A dup=3980 drop=0 speed=   1x elapsed=0:03:20.93    frame= 5030 fps= 25 q=14.0 size=N/A time=00:03:21.52 bitrate=N/A dup=3980 drop=0 speed=   1x elapsed=0:03:21.44    frame= 5032 fps= 25 q=21.0 size=N/A time=00:03:21.60 bitrate=N/A dup=3980 drop=0 speed=0.998x elapsed=0:03:21.96    frame= 5033 fps= 25 q=19.0 size=N/A time=00:03:21.64 bitrate=N/A dup=3980 drop=0 speed=0.996x elapsed=0:03:22.47    frame= 5033 fps= 25 q=19.0 size=N/A time=00:03:21.64 bitrate=N/A dup=3980 drop=0 speed=0.993x elapsed=0:03:23.00    frame= 5033 fps= 25 q=19.0 size=N/A time=00:03:21.64 bitrate=N/A dup=3980 drop=0 speed=0.991x elapsed=0:03:23.51    frame= 5037 fps= 25 q=15.0 size=N/A time=00:03:21.80 bitrate=N/A dup=4100 drop=0 speed=0.989x elapsed=0:03:24.03    frame= 5050 fps= 25 q=12.0 size=N/A time=00:03:22.32 bitrate=N/A dup=4100 drop=0 speed=0.989x elapsed=0:03:24.56    frame= 5151 fps= 25 q=16.0 size=N/A time=00:03:26.60 bitrate=N/A dup=4100 drop=0 speed=1.01x elapsed=0:03:25.07    frame= 5165 fps= 25 q=18.0 size=N/A time=00:03:26.92 bitrate=N/A dup=4100 drop=0 speed=1.01x elapsed=0:03:25.58    frame= 5173 fps= 25 q=21.0 size=N/A time=00:03:27.24 bitrate=N/A dup=4100 drop=0 speed=1.01x elapsed=0:03:26.10    frame= 5173 fps= 25 q=21.0 size=N/A time=00:03:27.24 bitrate=N/A dup=4100 drop=0 speed=   1x elapsed=0:03:26.62    frame= 5173 fps= 25 q=21.0 size=N/A time=00:03:27.24 bitrate=N/A dup=4100 drop=0 speed=   1x elapsed=0:03:27.14    frame= 5210 fps= 25 q=13.0 size=N/A time=00:03:28.72 bitrate=N/A dup=4175 drop=0 speed=1.01x elapsed=0:03:27.65    [in#0/rtsp @ 000002054e4c69c0] Error during demuxing: Error number -10054 occurred
frame= 5230 fps=1.7 q=12.0 size=N/A time=00:03:29.52 bitrate=N/A dup=4175 drop=0 speed=0.0671x elapsed=0:52:02.21    frame= 5237 fps=1.7 q=12.0 size=N/A time=00:03:29.80 bitrate=N/A dup=4175 drop=0 speed=0.0672x elapsed=0:52:02.76    [hevc @ 000002054e55e540] Skipping invalid undecodable NALU: 19
frame= 5258 fps=1.7 q=20.0 size=N/A time=00:03:30.64 bitrate=N/A dup=4175 drop=0 speed=0.0674x elapsed=0:52:03.28    [out#0/rtsp @ 000002054ea7ddc0] video:60420KiB audio:0KiB subtitle:0KiB other streams:0KiB global headers:0KiB muxing overhead: unknown
frame= 5267 fps=1.7 q=24.0 Lsize=N/A time=00:03:31.00 bitrate=N/A dup=4175 drop=0 speed=0.0676x elapsed=0:52:03.45    
[libx264 @ 000002054e4e6500] frame I:106   Avg QP:12.57  size:372326
[libx264 @ 000002054e4e6500] frame P:5161  Avg QP:16.06  size:  4341
[libx264 @ 000002054e4e6500] mb I  I16..4:  0.6%  1.3% 98.1%
[libx264 @ 000002054e4e6500] mb P  I16..4:  0.0%  0.0%  0.0%  P16..4: 13.6%  0.1%  0.1%  0.0%  0.0%    skip:86.1%
[libx264 @ 000002054e4e6500] 8x8 transform intra:1.7% inter:40.8%
[libx264 @ 000002054e4e6500] coded y,uvDC,uvAC intra: 97.2% 86.8% 74.1% inter: 6.7% 4.6% 0.3%
[libx264 @ 000002054e4e6500] i16 v,h,dc,p: 29% 42% 24%  5%
[libx264 @ 000002054e4e6500] i8 v,h,dc,ddl,ddr,vr,hd,vl,hu: 22% 27% 23%  6%  3%  4%  3%  5%  8%
[libx264 @ 000002054e4e6500] i4 v,h,dc,ddl,ddr,vr,hd,vl,hu: 18% 17% 11%  8%  9%  9%  9%  9% 12%
[libx264 @ 000002054e4e6500] i8c dc,h,v,p: 40% 32% 16% 12%
[libx264 @ 000002054e4e6500] Weighted P-Frames: Y:0.0% UV:0.0%
[libx264 @ 000002054e4e6500] kb/s:2349.34
